<svg width="67" height="67" viewBox="0 0 67 67" fill="none" xmlns="http://www.w3.org/2000/svg">
<rect x="0.878906" y="0.657227" width="65.6589" height="65.6589" rx="32.8295" fill="url(#paint0_linear_1575_30456)"/>
<path d="M39.561 21.3546C39.6911 21.2245 39.7797 21.0587 39.8156 20.8782C39.8515 20.6977 39.8331 20.5107 39.7627 20.3407C39.6923 20.1706 39.5731 20.0253 39.4202 19.923C39.2672 19.8207 39.0874 19.7661 38.9034 19.766H36.5532C36.3712 19.7659 36.1932 19.7125 36.0413 19.6123C35.8893 19.512 35.7701 19.3695 35.6984 19.2022L34.5628 16.5508C34.4912 16.3834 34.372 16.2408 34.22 16.1405C34.068 16.0403 33.89 15.9868 33.7079 15.9868C33.5258 15.9868 33.3478 16.0403 33.1958 16.1405C33.0438 16.2408 32.9246 16.3834 32.8529 16.5508L31.7171 19.2022C31.6454 19.3695 31.5262 19.5121 31.3743 19.6124C31.2223 19.7126 31.0443 19.766 30.8623 19.766H28.5124C28.3284 19.7661 28.1485 19.8207 27.9955 19.9229C27.8425 20.0252 27.7233 20.1705 27.6529 20.3405C27.5824 20.5106 27.564 20.6976 27.5999 20.8781C27.6358 21.0586 27.7244 21.2244 27.8545 21.3546L29.6147 23.1154C29.7284 23.2291 29.8107 23.3702 29.8536 23.5251C29.8965 23.6799 29.8985 23.8433 29.8595 23.9992L29.0276 27.3277C28.9833 27.5046 28.992 27.6906 29.0526 27.8626C29.1132 28.0346 29.2229 28.185 29.3683 28.2951C29.5136 28.4052 29.6881 28.4702 29.87 28.482C30.052 28.4938 30.2334 28.4518 30.3917 28.3614L33.2463 26.7295C33.3868 26.6491 33.5459 26.6069 33.7077 26.6069C33.8696 26.6069 34.0286 26.6491 34.1692 26.7295L37.0241 28.3614C37.1824 28.4518 37.3638 28.4937 37.5457 28.4819C37.7277 28.4702 37.9021 28.4052 38.0474 28.295C38.1927 28.1849 38.3024 28.0345 38.363 27.8625C38.4235 27.6906 38.4322 27.5046 38.3879 27.3277L37.556 23.9992C37.517 23.8433 37.5191 23.68 37.562 23.5251C37.6049 23.3702 37.6871 23.2291 37.8008 23.1154L39.561 21.3546Z" fill="white"/>
<path d="M18.7556 28.6467L18.0903 31.3097C18.0548 31.4511 18.0618 31.5999 18.1102 31.7375C18.1586 31.8751 18.2464 31.9954 18.3627 32.0835C18.4789 32.1715 18.6185 32.2235 18.764 32.2329C18.9096 32.2423 19.0547 32.2088 19.1813 32.1364L21.4649 30.8308C21.5774 30.7667 21.7047 30.7329 21.8342 30.7329C21.9637 30.7329 22.091 30.7667 22.2034 30.8308L24.4874 32.1364C24.614 32.2088 24.7591 32.2423 24.9046 32.2329C25.0501 32.2235 25.1897 32.1715 25.3059 32.0834C25.4221 31.9953 25.5099 31.875 25.5583 31.7375C25.6067 31.5999 25.6136 31.4511 25.5781 31.3097L24.9128 28.6467C24.8816 28.522 24.8833 28.3914 24.9175 28.2675C24.9518 28.1436 25.0176 28.0307 25.1084 27.9398L26.5168 26.5309C26.6209 26.4268 26.6917 26.2942 26.7205 26.1498C26.7492 26.0055 26.7345 25.8558 26.6781 25.7198C26.6218 25.5838 26.5265 25.4676 26.4041 25.3858C26.2818 25.3039 26.1379 25.2602 25.9907 25.2602H24.1108C23.9651 25.2601 23.8226 25.2174 23.701 25.1372C23.5794 25.057 23.484 24.9428 23.4266 24.8089L22.5181 22.688C22.4608 22.5541 22.3654 22.44 22.2439 22.3598C22.1223 22.2796 21.9798 22.2368 21.8342 22.2368C21.6885 22.2368 21.5461 22.2796 21.4245 22.3598C21.3029 22.44 21.2076 22.5541 21.1503 22.688L20.2418 24.809C20.1844 24.9429 20.089 25.057 19.9674 25.1372C19.8457 25.2174 19.7033 25.2602 19.5576 25.2602H17.6777C17.5305 25.2603 17.3866 25.304 17.2642 25.3858C17.1419 25.4676 17.0465 25.5839 16.9902 25.7199C16.9339 25.8559 16.9192 26.0055 16.9479 26.1499C16.9766 26.2943 17.0475 26.4269 17.1516 26.531L18.56 27.9398C18.6508 28.0308 18.7165 28.1436 18.7508 28.2675C18.7851 28.3914 18.7867 28.522 18.7556 28.6467Z" fill="white"/>
<path d="M49.8266 25.2602H47.9467C47.8011 25.2602 47.6586 25.2174 47.537 25.1372C47.4154 25.057 47.3201 24.9428 47.2628 24.8089L46.354 22.688C46.2967 22.5541 46.2013 22.44 46.0798 22.3598C45.9582 22.2796 45.8158 22.2368 45.6701 22.2368C45.5244 22.2368 45.382 22.2796 45.2604 22.3598C45.1389 22.44 45.0435 22.5541 44.9862 22.688L44.0774 24.809C44.0201 24.9429 43.9248 25.057 43.8033 25.1372C43.6818 25.2175 43.5394 25.2602 43.3938 25.2603H41.5139C41.3667 25.2603 41.2228 25.3039 41.1004 25.3857C40.978 25.4675 40.8826 25.5838 40.8262 25.7198C40.7699 25.8558 40.7551 26.0055 40.7838 26.1499C40.8125 26.2943 40.8834 26.4269 40.9875 26.531L42.3959 27.9399C42.4868 28.0308 42.5526 28.1437 42.5869 28.2676C42.6211 28.3915 42.6227 28.5221 42.5915 28.6468L41.9259 31.3098C41.8905 31.4513 41.8975 31.6 41.946 31.7376C41.9944 31.8752 42.0823 31.9955 42.1985 32.0835C42.3148 32.1716 42.4544 32.2236 42.5999 32.233C42.7455 32.2424 42.8906 32.2089 43.0172 32.1365L45.3008 30.8309C45.4133 30.7668 45.5406 30.733 45.6701 30.733C45.7996 30.733 45.9269 30.7668 46.0394 30.8309L48.323 32.1365C48.4496 32.2088 48.5947 32.2424 48.7403 32.233C48.8858 32.2236 49.0254 32.1716 49.1416 32.0835C49.2579 31.9954 49.3457 31.8751 49.3942 31.7376C49.4426 31.6 49.4496 31.4513 49.4142 31.3098L48.7487 28.6468C48.7175 28.5221 48.7191 28.3915 48.7534 28.2676C48.7877 28.1437 48.8534 28.0308 48.9443 27.9399L50.3527 26.5309C50.4568 26.4268 50.5277 26.2942 50.5564 26.1498C50.5851 26.0055 50.5704 25.8558 50.5141 25.7198C50.4578 25.5838 50.3624 25.4676 50.24 25.3858C50.1177 25.3039 49.9738 25.2602 49.8266 25.2602Z" fill="white"/>
<path d="M22.8885 38.2983H24.9614C25.2923 38.2983 25.6097 38.4298 25.8437 38.6638C26.0776 38.8978 26.2091 39.2151 26.2091 39.5461V49.3208C26.2091 49.6518 26.0776 49.9692 25.8436 50.2032C25.6096 50.4372 25.2922 50.5687 24.9612 50.5687H22.8885C22.5575 50.5687 22.2401 50.4372 22.0061 50.2032C21.7721 49.9692 21.6406 49.6518 21.6406 49.3208V39.5462C21.6406 39.3823 21.6729 39.2201 21.7356 39.0687C21.7983 38.9173 21.8902 38.7797 22.0061 38.6638C22.122 38.548 22.2595 38.456 22.4109 38.3933C22.5623 38.3306 22.7246 38.2983 22.8885 38.2983Z" fill="white"/>
<path d="M38.5955 39.6619H35.2703L37.4953 32.9995C37.5549 32.8137 37.5844 32.6196 37.5829 32.4245C37.586 32.0456 37.4725 31.675 37.2578 31.3629C37.043 31.0508 36.7375 30.8123 36.3825 30.6799C36.0276 30.5475 35.6404 30.5275 35.2737 30.6227C34.907 30.7178 34.5785 30.9236 34.3328 31.2119L27.7495 38.9063C27.5549 39.1315 27.4482 39.4195 27.4492 39.7171C27.4563 41.3074 27.4575 46.6223 27.4578 48.6196C27.4578 48.851 27.5226 49.0778 27.6446 49.2745C27.7667 49.4711 27.9413 49.6297 28.1487 49.7324L28.3828 49.8496C29.3358 50.3263 30.3867 50.5744 31.4522 50.5744H37.2329C37.8419 50.5707 38.4326 50.3649 38.9121 49.9894C39.3917 49.6139 39.733 49.0899 39.8827 48.4995L41.2453 43.0495C41.3452 42.6472 41.3521 42.2274 41.2657 41.822C41.1792 41.4166 41.0015 41.0363 40.7461 40.7098C40.4907 40.3833 40.1643 40.1193 39.7917 39.9377C39.4191 39.7561 39.01 39.6618 38.5955 39.6619Z" fill="white"/>
<defs>
<linearGradient id="paint0_linear_1575_30456" x1="0.878906" y1="33.4867" x2="66.5378" y2="33.4867" gradientUnits="userSpaceOnUse">
<stop stop-color="#FF8A18"/>
<stop offset="1" stop-color="#DE6E01"/>
</linearGradient>
</defs>
</svg>
