<svg width="67" height="67" viewBox="0 0 67 67" fill="none" xmlns="http://www.w3.org/2000/svg">
<rect x="0.878906" y="0.743652" width="65.6589" height="65.6589" rx="32.8295" fill="url(#paint0_linear_244_26003)"/>
<path fill-rule="evenodd" clip-rule="evenodd" d="M20.0849 32.5793C20.2147 34.2479 20.6473 35.8973 21.3822 37.4386L18.8391 38.9068C17.8527 36.9096 17.2896 34.756 17.15 32.5794H20.0849V32.5793ZM34.6177 20.9664C36.7696 20.9664 38.5142 22.7109 38.5142 24.8629C38.5142 27.0148 36.7696 28.7593 34.6177 28.7593C32.4657 28.7593 30.7212 27.0148 30.7212 24.8629C30.7212 22.7109 32.4657 20.9664 34.6177 20.9664ZM27.7827 36.4179H41.4527C41.9051 36.4179 42.2376 36.0032 42.139 35.5616C41.3703 32.1161 38.2948 29.5406 34.6177 29.5406C30.9405 29.5406 27.8651 32.1161 27.0964 35.5617C26.9978 36.0032 27.3302 36.4179 27.7827 36.4179ZM33.481 43.4405C34.1476 43.5219 34.6952 43.3213 34.8807 42.6289C35.0475 42.0062 34.654 41.4221 34.0675 41.2168C32.1746 40.8697 30.3407 40.2068 28.8985 39.6853C26.8289 38.9371 26.2886 38.7611 24.2472 39.9431L20.5753 42.069L23.6246 47.4568L23.8656 47.3177C24.014 47.2324 24.1829 47.2151 24.3363 47.2561L32.6155 49.4725C33.8172 49.7945 34.5462 49.6654 35.5605 49.0407L46.9302 42.0397C47.2844 41.8217 47.4585 41.3154 47.4071 40.8203C47.3651 40.4151 47.1684 40.0488 46.7957 39.86C46.2042 39.5604 45.1771 39.6499 43.5883 40.5752L37.2989 44.2385C36.7936 44.5327 36.2737 44.7197 35.7339 44.8104C34.1746 45.0722 31.8259 44.3371 30.4293 43.9383C29.9805 43.8102 29.525 43.68 29.08 43.5608C28.7469 43.4718 28.5491 43.1297 28.6381 42.7967C28.7271 42.4636 29.0692 42.2658 29.4022 42.3548C30.7596 42.7184 32.1053 43.1557 33.481 43.4405ZM18.6814 41.2603L23.6519 50.0429C23.8922 50.4676 23.7414 51.0117 23.3167 51.252L21.626 52.2089C21.2014 52.4492 20.6573 52.2984 20.417 51.8737L15.4464 43.0911C15.2061 42.6664 15.3569 42.1223 15.7816 41.882L17.4723 40.9251C17.8969 40.6848 18.441 40.8356 18.6814 41.2603ZM17.5416 42.5768C17.2117 42.625 16.9834 42.9314 17.0317 43.2614C17.0799 43.5913 17.3864 43.8196 17.7163 43.7714C18.0461 43.7232 18.2745 43.4166 18.2262 43.0868C18.1779 42.7568 17.8714 42.5285 17.5416 42.5768ZM17.15 30.4219C17.295 28.1634 17.8889 26.0254 18.8436 24.0971L21.402 25.5742C20.6985 27.0606 20.246 28.6954 20.0964 30.4219H17.15ZM19.9236 22.2296C21.1465 20.3989 22.7212 18.8225 24.5521 17.5982L26.014 20.1303C24.6247 21.0903 23.4253 22.3021 22.4732 23.7015L19.9236 22.2296ZM26.4195 16.5177C28.346 15.5631 30.4835 14.9682 32.7456 14.8236V17.7576C31.0049 17.89 29.3663 18.34 27.8809 19.0489L26.4195 16.5177ZM34.9029 14.8232V17.7581C42.0132 18.3066 47.6119 24.2497 47.6119 31.5007C47.6119 32.0811 47.5758 32.6532 47.506 33.2147H46.5426C46.2607 33.2147 46.1035 33.5387 46.2778 33.7602L48.8803 37.0657C49.0153 37.237 49.275 37.2371 49.4099 37.0657L52.0124 33.7602C52.1867 33.5387 52.0295 33.2148 51.7476 33.2147H50.4538C50.5112 32.6512 50.5407 32.0794 50.5407 31.5007C50.5407 22.6318 43.632 15.3776 34.9029 14.8232Z" fill="white"/>
<defs>
<linearGradient id="paint0_linear_244_26003" x1="0.878906" y1="33.5731" x2="66.5378" y2="33.5731" gradientUnits="userSpaceOnUse">
<stop stop-color="#FF8A18"/>
<stop offset="1" stop-color="#DE6E01"/>
</linearGradient>
</defs>
</svg>
