<svg width="67" height="67" viewBox="0 0 67 67" fill="none" xmlns="http://www.w3.org/2000/svg">
<rect x="0.878906" y="0.353027" width="65.6589" height="65.6589" rx="32.8295" fill="url(#paint0_linear_1575_20733)"/>
<g clip-path="url(#clip0_1575_20733)">
<path d="M33.709 22.9387C34.8952 22.9387 35.8568 23.9004 35.8568 25.0865C35.8568 26.2727 34.8952 27.2344 33.709 27.2344C32.5228 27.2344 31.5612 26.2727 31.5612 25.0865C31.5612 23.9004 32.5227 22.9387 33.709 22.9387ZM33.709 45.1863C28.578 45.1863 24.1984 41.9719 22.472 37.4474L15.4212 39.3367C17.9959 46.9661 25.2109 52.4594 33.709 52.4594C35.0085 52.4594 36.2778 52.3303 37.5053 52.0854L35.6162 45.0352C34.9951 45.1344 34.3581 45.1863 33.709 45.1863ZM33.709 37.8497C31.6235 37.8497 29.8998 39.4779 29.7461 41.5258C29.734 41.6876 29.8602 41.8237 30.0226 41.8237H37.3954C37.5577 41.8237 37.684 41.6876 37.6719 41.5258C37.5182 39.4779 35.7945 37.8497 33.709 37.8497ZM31.5612 35.4945C31.5612 36.6807 32.5228 37.6423 33.709 37.6423C34.8952 37.6423 35.8568 36.6807 35.8568 35.4945C35.8568 34.3083 34.8952 33.3467 33.709 33.3467C32.5227 33.3467 31.5612 34.3083 31.5612 35.4945ZM43.3889 36.8911C43.2353 34.8432 41.5116 33.2151 39.426 33.2151C38.4415 33.2151 37.5377 33.578 36.8415 34.1766C37.0123 34.5819 37.1067 35.0272 37.1067 35.4945C37.1067 36.1115 36.9421 36.6902 36.6544 37.189H43.1123C43.2747 37.189 43.4011 37.0529 43.3889 36.8911ZM24.0291 36.8911C24.017 37.0529 24.1433 37.189 24.3055 37.189H30.7635C30.4759 36.6902 30.3112 36.1115 30.3112 35.4945C30.3112 35.0272 30.4056 34.5819 30.5765 34.1766C29.8803 33.578 28.9766 33.2151 27.992 33.2151C25.9064 33.2151 24.1827 34.8432 24.0291 36.8911ZM37.994 44.3994L39.8831 51.4497C43.9604 50.0735 47.4275 47.372 49.7722 43.8576L43.4521 40.2087C42.09 42.0884 40.1975 43.5586 37.994 44.3994ZM41.5738 30.8598C41.5738 29.6737 40.6122 28.712 39.426 28.712C38.2398 28.712 37.2782 29.6737 37.2782 30.8598C37.2782 32.0461 38.2398 33.0076 39.426 33.0076C40.6123 33.0076 41.5738 32.0461 41.5738 30.8598ZM30.1397 30.8598C30.1397 29.6737 29.178 28.712 27.9919 28.712C26.8056 28.712 25.8441 29.6737 25.8441 30.8598C25.8441 32.0461 26.8057 33.0076 27.9919 33.0076C29.178 33.0076 30.1397 32.0461 30.1397 30.8598ZM44.9459 28.8775L51.9955 26.9886C49.5459 19.731 42.8977 14.4068 34.9396 13.9058V21.2008C39.5318 21.6677 43.3593 24.7193 44.9459 28.8775ZM52.6319 29.3661L45.5816 31.2551C45.6809 31.8763 45.7328 32.5133 45.7328 33.1624C45.7328 34.9138 45.358 36.5776 44.6848 38.0783L51.0043 41.7269C52.285 39.1463 53.0059 36.2387 53.0059 33.1625C53.0059 31.8629 52.8769 30.5936 52.6319 29.3661ZM21.6851 33.1625C21.6851 26.9373 26.4159 21.8172 32.4784 21.2008V13.9058C22.3946 14.5406 14.4121 22.9187 14.4121 33.1625C14.4121 34.462 14.5415 35.7312 14.7864 36.9587L21.8362 35.0697C21.7371 34.4486 21.6851 33.8116 21.6851 33.1625ZM33.709 27.4418C32.514 27.4418 31.4379 27.9765 30.7078 28.8183C31.1359 29.3867 31.3898 30.0937 31.3898 30.8598C31.3898 31.0491 31.3742 31.2348 31.3445 31.4157H36.0735C36.0437 31.2348 36.0283 31.0491 36.0283 30.8598C36.0283 30.0937 36.2821 29.3867 36.7102 28.8183C35.98 27.9765 34.904 27.4418 33.709 27.4418Z" fill="white"/>
</g>
<defs>
<linearGradient id="paint0_linear_1575_20733" x1="0.878906" y1="33.1825" x2="66.5378" y2="33.1825" gradientUnits="userSpaceOnUse">
<stop stop-color="#FF8A18"/>
<stop offset="1" stop-color="#DE6E01"/>
</linearGradient>
<clipPath id="clip0_1575_20733">
<rect width="40" height="40" fill="white" transform="translate(13.709 13.1826)"/>
</clipPath>
</defs>
</svg>
