<svg width="67" height="66" viewBox="0 0 67 66" fill="none" xmlns="http://www.w3.org/2000/svg">
<rect x="0.878906" y="0.0483398" width="65.6589" height="65.6589" rx="32.8295" fill="url(#paint0_linear_1575_33399)"/>
<g clip-path="url(#clip0_1575_33399)">
<path d="M51.2628 37.8493V35.3247H39.6245C39.6245 38.5914 36.9763 41.2397 33.7095 41.2397C30.4427 41.2397 27.7945 38.5915 27.7945 35.3247H16.1562V37.8493L21.21 38.3845C21.5252 39.6767 22.0356 40.8924 22.7082 41.9987L19.5123 45.9516L23.0827 49.522L27.0355 46.326C28.1418 46.9986 29.3576 47.509 30.6498 47.8242L31.1849 52.878H36.2341L36.7693 47.8242C38.0615 47.509 39.2773 46.9986 40.3835 46.326L44.3364 49.522L47.9068 45.9516L44.7109 41.9987C45.3834 40.8924 45.8938 39.6767 46.2091 38.3845L51.2628 37.8493Z" fill="white"/>
<path d="M33.7096 12.8779C31.2097 12.8779 29.1758 14.9118 29.1758 17.4118C29.1758 19.9117 31.2097 21.9455 33.7096 21.9455C36.2095 21.9455 38.2434 19.9117 38.2434 17.4118C38.2434 14.9118 36.2095 12.8779 33.7096 12.8779Z" fill="white"/>
<path d="M38.5366 23.1992H28.8823C26.6598 23.1993 24.8516 25.0074 24.8516 27.23V32.9811H42.5673V27.23C42.5673 25.0074 40.7591 23.1992 38.5366 23.1992Z" fill="white"/>
<path d="M24.0908 14.9722C21.8512 14.9722 20.0293 16.7942 20.0293 19.0337C20.0293 21.2551 21.8223 23.0647 24.0371 23.0937C24.9543 22.0209 26.2198 21.2552 27.6577 20.9744C27.9728 20.3974 28.1523 19.7362 28.1523 19.0337C28.1523 16.7941 26.3303 14.9722 24.0908 14.9722Z" fill="white"/>
<path d="M19.7671 24.2183C17.7761 24.2183 16.1562 25.838 16.1562 27.8291V32.9811H22.5079V27.2299C22.5079 26.1412 22.7827 25.1157 23.2659 24.2183H19.7671Z" fill="white"/>
<path d="M43.3271 14.9722C41.0876 14.9722 39.2656 16.7942 39.2656 19.0337C39.2656 19.7361 39.445 20.3974 39.7602 20.9744C41.198 21.2552 42.4636 22.0209 43.3808 23.0937C45.5955 23.0648 47.3886 21.2551 47.3886 19.0337C47.3886 16.7941 45.5666 14.9722 43.3271 14.9722Z" fill="white"/>
<path d="M47.6512 24.2183H44.1523C44.6355 25.1157 44.9104 26.1412 44.9104 27.2299V32.981H51.262V27.829C51.262 25.838 49.6422 24.2183 47.6512 24.2183Z" fill="white"/>
</g>
<defs>
<linearGradient id="paint0_linear_1575_33399" x1="0.878906" y1="32.8778" x2="66.5378" y2="32.8778" gradientUnits="userSpaceOnUse">
<stop stop-color="#FF8A18"/>
<stop offset="1" stop-color="#DE6E01"/>
</linearGradient>
<clipPath id="clip0_1575_33399">
<rect width="40" height="40" fill="white" transform="translate(13.709 12.8779)"/>
</clipPath>
</defs>
</svg>
